<?xml version="1.0" encoding="utf-8"?>
<!-- Generator: Adobe Illustrator 16.0.0, SVG Export Plug-In . SVG Version: 6.00 Build 0)  -->
<!DOCTYPE svg PUBLIC "-//W3C//DTD SVG 1.1//EN" "http://www.w3.org/Graphics/SVG/1.1/DTD/svg11.dtd">
<svg version="1.1" id="Calque_1" xmlns="http://www.w3.org/2000/svg" xmlns:xlink="http://www.w3.org/1999/xlink" x="0px" y="0px"
	 width="295.023px" height="82.154px" viewBox="0 0 295.023 82.154" enable-background="new 0 0 295.023 82.154"
	 xml:space="preserve">
<path fill="#FFFFFF" d="M265.498,42.668c30.332-6.75,29.523-21.927,29.523-21.927s-17.557,15.02-31.996,12.021
	c-8.541-1.775,4.994-15.904,18.188-16.109c-30.023-12.187-39.349,15.933-48.147,11.671c-11.836-5.732-4.438-15.535,8.5-16.584
	c-28.845-12.267-30.054,7.319-41.614,8.355c-25.281,2.265-19.316-15.628-1.008-19.373c-33.705-6.242-41.194,30.237-50.903,24.551
	c-8.864-5.192,12.888-17.751,12.888-17.751s-37.124,3.042-43.984,23.667h27.261c2.608,0,4.85,0.68,6.665,2.024
	c1.02,0.754,1.803,1.707,2.368,2.786l1.707-4.81h28.538c2.608,0,4.851,0.68,6.665,2.024c0.309,0.228,0.551,0.508,0.818,0.77
	l0.98-2.793h30.495c5.301,0,8.728,3.425,8.728,8.726c0,1.266-0.211,2.494-0.627,3.648l-10.138,28.744h-30.288
	c-2.839,0-5.253-1.134-6.817-3.184c-0.718,0.864-1.58,1.527-2.524,2.051c34.413,17.625,49.211,10.244,52.926,3.855
	c-6.554,3.969-14.103-2.394-8.773-7.761c5.336-5.365,13.687,2.853,24.599,0.817c20.717-3.86,24.041-11.836,24.402-18.77
	C261.178,58.099,255.004,45.003,265.498,42.668z"/>
<g opacity="0.5">
	<path fill="#FFFFFF" d="M149.34,42.544l-1.9,5.299c-0.756,2.103-2.063,3.344-3.925,3.721c0.432,0.108,0.789,0.42,1.072,0.931
		c0.284,0.513,0.425,1.093,0.425,1.739c0,0.379-0.066,0.756-0.201,1.133l-3.075,8.899c-0.837,2.401-2.373,3.601-4.612,3.601h-29.771
		l11.447-32.241h25.405c1.645,0,2.986,0.385,4.024,1.153s1.559,1.868,1.559,3.297C149.787,40.832,149.637,41.653,149.34,42.544z
		 M135.424,57.042c0.055-0.189,0.083-0.38,0.083-0.569c0-1.088-0.594-1.631-1.782-1.631h-12.942l-1.903,5.421h12.744
		c1.753,0,2.846-0.599,3.276-1.794L135.424,57.042z M139.713,44.833c0.026-0.107,0.042-0.213,0.042-0.32
		c0-0.854-0.677-1.282-2.024-1.282h-12.824l-1.456,4.087h13.107c0.942,0,1.619-0.107,2.022-0.321
		c0.325-0.188,0.567-0.534,0.728-1.042L139.713,44.833z"/>
</g>
<path fill="#FFFFFF" d="M42.431,42.058l-9.103,25.809H6.186c-1.485,0-2.591-0.486-3.318-1.459c-0.592-0.837-0.889-1.891-0.889-3.161
	c0-0.864,0.134-1.663,0.403-2.392l3.48-10.012c0.834-2.432,2.546-3.647,5.137-3.647h20.792l0.607-1.882
	c0.08-0.241,0.121-0.467,0.121-0.682c0-0.935-0.606-1.401-1.82-1.401H8.491l2.67-7.605h27.345c2.858,0,4.288,1.43,4.288,4.288
	C42.794,40.669,42.673,41.384,42.431,42.058z M29.121,54.8H15.205c-1.268,0-2.103,0.576-2.508,1.725l-0.526,1.396
	c-0.108,0.356-0.16,0.684-0.16,0.985c0,0.903,0.457,1.355,1.374,1.355h13.836L29.121,54.8z"/>
<path fill="#FFFFFF" d="M70.105,47.276c0.188-0.269-0.689,2.239-2.632,7.524h-16.22l-4.611,13.066h-8.818L49.23,35.546h24.999
	l-2.629,7.604H55.34l-1.457,4.126H70.105z"/>
<path fill="#FFFFFF" d="M110.692,42.544l-7.646,21.722c-0.837,2.401-2.36,3.601-4.571,3.601H68.702L80.11,35.626h25.443
	c1.646,0,2.986,0.385,4.027,1.153c1.038,0.768,1.556,1.868,1.556,3.297C111.137,40.832,110.989,41.653,110.692,42.544z
	 M101.065,44.849c0.026-0.107,0.039-0.215,0.039-0.323c0-0.862-0.687-1.295-2.063-1.295H86.259l-6.027,17.031h12.702
	c1.779,0,2.885-0.594,3.316-1.78l0.242-0.688C96.629,57.444,98.152,53.128,101.065,44.849z"/>
<path fill="#FFFFFF" d="M149.34,42.544l-1.9,5.299c-0.756,2.103-2.063,3.344-3.925,3.721c0.432,0.108,0.789,0.42,1.072,0.931
	c0.284,0.513,0.425,1.093,0.425,1.739c0,0.379-0.066,0.756-0.201,1.133l-3.075,8.899c-0.837,2.401-2.373,3.601-4.612,3.601h-29.771
	l11.447-32.241h25.405c1.645,0,2.986,0.385,4.024,1.153s1.559,1.868,1.559,3.297C149.787,40.832,149.637,41.653,149.34,42.544z
	 M135.424,57.042c0.055-0.189,0.083-0.38,0.083-0.569c0-1.088-0.594-1.631-1.782-1.631h-12.942l-1.903,5.421h12.744
	c1.753,0,2.846-0.599,3.276-1.794L135.424,57.042z M139.713,44.833c0.026-0.107,0.042-0.213,0.042-0.32
	c0-0.854-0.677-1.282-2.024-1.282h-12.824l-1.456,4.087h13.107c0.942,0,1.619-0.107,2.022-0.321
	c0.325-0.188,0.567-0.534,0.728-1.042L139.713,44.833z"/>
<path fill="#FFFFFF" d="M189.248,42.544l-1.9,5.299c-0.756,2.103-2.063,3.344-3.925,3.721c0.432,0.108,0.789,0.42,1.073,0.931
	c0.283,0.513,0.424,1.093,0.424,1.739c0,0.379-0.066,0.756-0.201,1.133l-3.075,8.899c-0.837,2.401-2.373,3.601-4.612,3.601h-29.771
	l11.447-32.241h25.404c1.645,0,2.986,0.385,4.024,1.153s1.559,1.868,1.559,3.297C189.695,40.832,189.545,41.653,189.248,42.544z
	 M175.332,57.042c0.055-0.189,0.083-0.38,0.083-0.569c0-1.088-0.594-1.631-1.781-1.631H160.69l-1.902,5.421h12.743
	c1.753,0,2.846-0.599,3.276-1.794L175.332,57.042z M179.621,44.833c0.026-0.107,0.042-0.213,0.042-0.32
	c0-0.854-0.677-1.282-2.024-1.282h-12.824l-1.456,4.087h13.107c0.942,0,1.619-0.107,2.022-0.321
	c0.325-0.188,0.567-0.534,0.728-1.042L179.621,44.833z"/>
<path fill="#FFFFFF" d="M226.994,42.058l-9.103,25.809h-27.146c-1.484,0-2.59-0.486-3.318-1.459
	c-0.592-0.837-0.889-1.891-0.889-3.161c0-0.864,0.135-1.663,0.403-2.392l3.48-10.012c0.835-2.432,2.548-3.647,5.138-3.647h20.795
	l0.606-1.882c0.081-0.241,0.122-0.467,0.122-0.682c0-0.935-0.607-1.401-1.821-1.401h-22.21l2.67-7.605h27.347
	c2.858,0,4.289,1.43,4.289,4.288C227.358,40.669,227.237,41.384,226.994,42.058z M213.686,54.8h-13.918
	c-1.269,0-2.103,0.576-2.508,1.725l-0.526,1.396c-0.108,0.356-0.161,0.684-0.161,0.985c0,0.903,0.458,1.355,1.374,1.355h13.839
	L213.686,54.8z"/>
<g>
	<path fill="#FFFFFF" d="M7.659,74.597l-1.395,4.549C6.111,79.648,5.834,79.9,5.431,79.9H0l2.081-6.752h4.641
		c0.3,0,0.545,0.08,0.734,0.241s0.284,0.392,0.284,0.69C7.74,74.238,7.713,74.41,7.659,74.597z M5.903,75.08
		c0.004-0.022,0.007-0.045,0.007-0.068c0-0.181-0.125-0.271-0.376-0.271H3.203l-1.1,3.565H4.42c0.325,0,0.526-0.124,0.604-0.372
		l0.045-0.144C5.094,77.716,5.371,76.814,5.903,75.08z"/>
	<path fill="#FFFFFF" d="M14.94,74.935l-1.335,4.338c-0.069,0.219-0.194,0.387-0.377,0.499c-0.142,0.085-0.297,0.128-0.464,0.128
		H8.492c-0.591,0-0.886-0.291-0.886-0.873c0-0.26,0.057-0.562,0.171-0.906l0.124-0.355l1.211-3.982
		c0.063-0.221,0.188-0.386,0.369-0.5c0.147-0.09,0.305-0.135,0.472-0.135h4.272c0.585,0,0.878,0.291,0.878,0.872
		C15.104,74.263,15.049,74.568,14.94,74.935z M13.222,75.266c0.02-0.058,0.029-0.114,0.029-0.17c0-0.237-0.089-0.355-0.265-0.355
		h-2.141c-0.285,0-0.479,0.169-0.583,0.509l-0.768,2.531c-0.02,0.057-0.029,0.116-0.029,0.178c0,0.232,0.089,0.348,0.266,0.348
		h2.141c0.177,0,0.312-0.051,0.405-0.152c0.06-0.066,0.116-0.184,0.17-0.347L13.222,75.266z"/>
	<path fill="#FFFFFF" d="M22.637,74.597l-1.395,4.549c-0.153,0.502-0.431,0.754-0.833,0.754h-5.432l2.082-6.752h4.64
		c0.301,0,0.545,0.08,0.735,0.241c0.189,0.161,0.283,0.392,0.283,0.69C22.718,74.238,22.691,74.41,22.637,74.597z M20.881,75.08
		c0.005-0.022,0.007-0.045,0.007-0.068c0-0.181-0.125-0.271-0.376-0.271h-2.331l-1.1,3.565h2.316c0.325,0,0.527-0.124,0.604-0.372
		l0.045-0.144C20.072,77.716,20.35,76.814,20.881,75.08z"/>
	<path fill="#FFFFFF" d="M29.793,73.148l-0.494,1.593h-3.622c-0.311,0-0.51,0.122-0.598,0.367c-0.089,0.245-0.251,0.751-0.487,1.517
		c-0.266,0.863-0.399,1.334-0.399,1.412c0,0.18,0.124,0.27,0.37,0.27h1.682c0.315,0,0.515-0.126,0.599-0.381
		c0.019-0.028,0.067-0.158,0.146-0.389h-1.83l0.495-1.594h3.431l-0.989,3.201c-0.083,0.266-0.184,0.455-0.302,0.568
		c-0.133,0.125-0.314,0.188-0.546,0.188h-3.881c-0.28,0-0.512-0.07-0.693-0.213c-0.212-0.163-0.317-0.402-0.317-0.719
		c0-0.148,0.029-0.316,0.089-0.509c0.363-1.237,0.825-2.757,1.387-4.558c0.083-0.26,0.182-0.446,0.295-0.559
		c0.133-0.131,0.315-0.195,0.546-0.195H29.793z"/>
	<path fill="#FFFFFF" d="M36.824,74.847l-0.767,2.485H31.41l-0.126,0.436c-0.035,0.108-0.052,0.2-0.052,0.274
		c0,0.176,0.099,0.264,0.296,0.264h4.234L35.275,79.9h-4.566c-0.866,0-1.3-0.311-1.3-0.932c0-0.176,0.055-0.443,0.163-0.806
		l1.35-4.489c0.108-0.35,0.372-0.525,0.79-0.525h4.331c0.619,0,0.929,0.293,0.929,0.879C36.972,74.247,36.923,74.521,36.824,74.847z
		 M35.106,75.177c0.01-0.033,0.014-0.07,0.014-0.109c0-0.218-0.12-0.327-0.36-0.327h-2.067c-0.176,0-0.302,0.015-0.376,0.042
		c-0.103,0.045-0.172,0.129-0.207,0.252l-0.198,0.705h3.032L35.106,75.177z"/>
	<path fill="#FFFFFF" d="M44.358,74.597l-0.347,1.109c-0.138,0.44-0.378,0.699-0.717,0.779c0.079,0.021,0.145,0.087,0.196,0.194
		c0.051,0.107,0.077,0.229,0.077,0.364c0,0.079-0.012,0.158-0.037,0.237l-0.561,1.864c-0.152,0.502-0.433,0.754-0.842,0.754h-5.43
		l2.088-6.752h4.634c0.3,0,0.545,0.08,0.733,0.241c0.189,0.161,0.285,0.392,0.285,0.69C44.439,74.238,44.412,74.41,44.358,74.597z
		 M41.819,77.632c0.011-0.039,0.015-0.08,0.015-0.119c0-0.229-0.108-0.342-0.323-0.342h-2.361l-0.347,1.135h2.323
		c0.319,0,0.519-0.124,0.598-0.375L41.819,77.632z M42.602,75.076c0.006-0.021,0.008-0.045,0.008-0.066
		c0-0.18-0.123-0.269-0.369-0.269h-2.339l-0.266,0.854h2.391c0.172,0,0.295-0.021,0.369-0.066c0.059-0.039,0.104-0.111,0.133-0.219
		L42.602,75.076z"/>
	<path fill="#FFFFFF" d="M51.685,74.495l-1.66,5.405h-4.951c-0.27,0-0.473-0.102-0.604-0.306c-0.108-0.176-0.163-0.396-0.163-0.662
		c0-0.181,0.025-0.349,0.074-0.501l0.635-2.097c0.151-0.509,0.465-0.764,0.937-0.764h3.793l0.11-0.395
		c0.015-0.05,0.022-0.098,0.022-0.142c0-0.197-0.11-0.294-0.333-0.294h-4.05l0.487-1.593h4.988c0.521,0,0.781,0.299,0.781,0.898
		C51.751,74.205,51.729,74.353,51.685,74.495z M49.257,77.164H46.72c-0.232,0-0.384,0.12-0.459,0.361l-0.095,0.292
		c-0.02,0.075-0.029,0.144-0.029,0.206c0,0.189,0.083,0.283,0.25,0.283h2.523L49.257,77.164z"/>
	<path fill="#FFFFFF" d="M57.823,78.306L57.336,79.9h-5.525l2.007-6.752h1.593l-1.542,5.158H57.823z"/>
	<path fill="#FFFFFF" d="M64.435,78.306L63.947,79.9h-5.525l2.007-6.752h1.593l-1.542,5.158H64.435z"/>
	<path fill="#FFFFFF" d="M76.491,74.597l-0.347,1.109c-0.138,0.44-0.377,0.699-0.717,0.779c0.079,0.021,0.145,0.087,0.196,0.194
		c0.051,0.107,0.077,0.229,0.077,0.364c0,0.079-0.012,0.158-0.037,0.237l-0.561,1.864c-0.152,0.502-0.433,0.754-0.842,0.754h-5.43
		l2.088-6.752h4.634c0.3,0,0.545,0.08,0.733,0.241c0.189,0.161,0.285,0.392,0.285,0.69C76.572,74.238,76.545,74.41,76.491,74.597z
		 M73.952,77.632c0.011-0.039,0.015-0.08,0.015-0.119c0-0.229-0.108-0.342-0.323-0.342h-2.361l-0.347,1.135h2.323
		c0.319,0,0.519-0.124,0.598-0.375L73.952,77.632z M74.734,75.076c0.006-0.021,0.008-0.045,0.008-0.066
		c0-0.18-0.123-0.269-0.368-0.269h-2.34l-0.266,0.854h2.391c0.172,0,0.295-0.021,0.369-0.066c0.059-0.039,0.104-0.111,0.133-0.219
		L74.734,75.076z"/>
	<path fill="#FFFFFF" d="M84.452,73.148l-0.495,1.593h-4.035c-0.167,0-0.316,0.043-0.446,0.131s-0.213,0.19-0.247,0.31L77.768,79.9
		h-1.609l1.771-5.77c0.202-0.655,0.642-0.982,1.32-0.982H84.452z"/>
	<path fill="#FFFFFF" d="M91.476,74.935l-1.335,4.338c-0.069,0.219-0.195,0.387-0.377,0.499C89.621,79.857,89.467,79.9,89.3,79.9
		h-4.273c-0.59,0-0.885-0.291-0.885-0.873c0-0.26,0.057-0.562,0.17-0.906l0.125-0.355l1.21-3.982c0.064-0.221,0.188-0.386,0.369-0.5
		c0.147-0.09,0.305-0.135,0.472-0.135h4.272c0.586,0,0.878,0.291,0.878,0.872C91.638,74.263,91.584,74.568,91.476,74.935z
		 M89.757,75.266c0.02-0.058,0.029-0.114,0.029-0.17c0-0.237-0.089-0.355-0.266-0.355h-2.14c-0.285,0-0.479,0.169-0.583,0.509
		l-0.768,2.531c-0.02,0.057-0.029,0.116-0.029,0.178c0,0.232,0.089,0.348,0.266,0.348h2.14c0.177,0,0.312-0.051,0.405-0.152
		c0.06-0.066,0.116-0.184,0.171-0.347L89.757,75.266z"/>
	<path fill="#FFFFFF" d="M98.987,73.148l-1.771,5.77c-0.202,0.654-0.64,0.982-1.313,0.982h-4.612l0.488-1.594h3.444
		c0.168,0,0.319-0.045,0.458-0.136c0.123-0.086,0.204-0.188,0.243-0.31l0.118-0.401h-2.796c-0.866,0-1.299-0.31-1.299-0.93
		c0-0.175,0.054-0.442,0.162-0.804l0.782-2.578h1.608l-0.679,2.188c-0.034,0.106-0.052,0.197-0.052,0.27
		c0,0.175,0.099,0.263,0.295,0.263h2.133c0.236,0,0.389-0.119,0.457-0.355c0.02-0.078,0.264-0.867,0.73-2.364H98.987z"/>
	<path fill="#FFFFFF" d="M106.003,74.847l-0.768,2.485h-4.647l-0.126,0.436c-0.034,0.108-0.052,0.2-0.052,0.274
		c0,0.176,0.099,0.264,0.296,0.264h4.234l-0.487,1.594h-4.566c-0.866,0-1.3-0.311-1.3-0.932c0-0.176,0.055-0.443,0.163-0.806
		l1.35-4.489c0.108-0.35,0.372-0.525,0.79-0.525h4.332c0.618,0,0.929,0.293,0.929,0.879
		C106.15,74.247,106.102,74.521,106.003,74.847z M104.284,75.177c0.01-0.033,0.014-0.07,0.014-0.109c0-0.218-0.12-0.327-0.36-0.327
		h-2.066c-0.177,0-0.303,0.015-0.376,0.042c-0.104,0.045-0.173,0.129-0.207,0.252l-0.198,0.705h3.031L104.284,75.177z"/>
	<path fill="#FFFFFF" d="M117.389,74.495l-1.66,5.405h-4.951c-0.271,0-0.473-0.102-0.604-0.306
		c-0.108-0.176-0.163-0.396-0.163-0.662c0-0.181,0.025-0.349,0.074-0.501l0.635-2.097c0.151-0.509,0.465-0.764,0.937-0.764h3.792
		l0.11-0.395c0.016-0.05,0.023-0.098,0.023-0.142c0-0.197-0.11-0.294-0.333-0.294h-4.051l0.488-1.593h4.987
		c0.521,0,0.781,0.299,0.781,0.898C117.454,74.205,117.433,74.353,117.389,74.495z M114.961,77.164h-2.538
		c-0.231,0-0.384,0.12-0.458,0.361l-0.096,0.292c-0.02,0.075-0.029,0.144-0.029,0.206c0,0.189,0.084,0.283,0.251,0.283h2.523
		L114.961,77.164z"/>
	<path fill="#FFFFFF" d="M124.229,73.148l-0.488,1.593h-3.482c-0.183,0-0.322,0.042-0.421,0.126
		c-0.054,0.044-0.112,0.129-0.176,0.252c-0.01,0.016-0.016,0.059-0.016,0.126s-0.002,0.101-0.008,0.101
		c-0.01,0.028-0.014,0.059-0.014,0.092c0,0.168,0.11,0.252,0.331,0.252h2.679c0.301,0,0.545,0.081,0.734,0.242
		c0.189,0.16,0.283,0.392,0.283,0.691c0,0.158-0.029,0.332-0.088,0.518c-0.146,0.459-0.363,1.127-0.648,2.004
		c-0.079,0.255-0.173,0.436-0.281,0.543c-0.133,0.141-0.319,0.213-0.561,0.213H117.1l0.494-1.594h3.476
		c0.315,0,0.517-0.126,0.605-0.379c0.074-0.217,0.12-0.32,0.14-0.31c0.006-0.022,0.008-0.046,0.008-0.069
		c0-0.178-0.125-0.267-0.376-0.267h-2.679c-0.295,0-0.537-0.081-0.727-0.245c-0.188-0.162-0.284-0.396-0.284-0.699
		c0-0.158,0.027-0.326,0.081-0.507c0.374-1.243,0.565-1.886,0.575-1.933c0.108-0.5,0.39-0.75,0.841-0.75H124.229z"/>
	<path fill="#FFFFFF" d="M131.179,73.148l-0.488,1.593h-3.482c-0.182,0-0.321,0.042-0.42,0.126
		c-0.055,0.044-0.113,0.129-0.177,0.252c-0.01,0.016-0.016,0.059-0.016,0.126s-0.002,0.101-0.008,0.101
		c-0.01,0.028-0.014,0.059-0.014,0.092c0,0.168,0.11,0.252,0.332,0.252h2.679c0.3,0,0.545,0.081,0.733,0.242
		c0.189,0.16,0.284,0.392,0.284,0.691c0,0.158-0.029,0.332-0.088,0.518c-0.147,0.459-0.364,1.127-0.649,2.004
		c-0.079,0.255-0.172,0.436-0.28,0.543c-0.134,0.141-0.32,0.213-0.562,0.213h-4.973l0.494-1.594h3.475
		c0.315,0,0.518-0.126,0.606-0.379c0.073-0.217,0.12-0.32,0.14-0.31c0.005-0.022,0.007-0.046,0.007-0.069
		c0-0.178-0.125-0.267-0.376-0.267h-2.679c-0.294,0-0.537-0.081-0.727-0.245c-0.188-0.162-0.284-0.396-0.284-0.699
		c0-0.158,0.027-0.326,0.081-0.507c0.374-1.243,0.566-1.886,0.576-1.933c0.107-0.5,0.389-0.75,0.841-0.75H131.179z"/>
	<path fill="#FFFFFF" d="M138.416,74.935l-1.335,4.338c-0.069,0.219-0.195,0.387-0.377,0.499c-0.142,0.085-0.297,0.128-0.464,0.128
		h-4.272c-0.591,0-0.886-0.291-0.886-0.873c0-0.26,0.057-0.562,0.17-0.906l0.125-0.355l1.21-3.982c0.064-0.221,0.188-0.386,0.37-0.5
		c0.147-0.09,0.305-0.135,0.471-0.135h4.273c0.585,0,0.878,0.291,0.878,0.872C138.579,74.263,138.524,74.568,138.416,74.935z
		 M136.697,75.266c0.02-0.058,0.029-0.114,0.029-0.17c0-0.237-0.089-0.355-0.266-0.355h-2.14c-0.285,0-0.479,0.169-0.583,0.509
		l-0.768,2.531c-0.02,0.057-0.029,0.116-0.029,0.178c0,0.232,0.089,0.348,0.266,0.348h2.141c0.176,0,0.312-0.051,0.405-0.152
		c0.06-0.066,0.115-0.184,0.17-0.347L136.697,75.266z"/>
	<path fill="#FFFFFF" d="M143.455,79.9h-4.191c-0.295,0-0.538-0.082-0.727-0.242c-0.189-0.161-0.283-0.391-0.283-0.689
		c0-0.158,0.026-0.328,0.081-0.509l1.387-4.558c0.152-0.503,0.433-0.754,0.841-0.754h4.973l-0.486,1.593h-3.482
		c-0.325,0-0.524,0.126-0.599,0.382c0.016-0.063-0.277,0.889-0.878,2.854c-0.005,0.023-0.007,0.046-0.007,0.068
		c0,0.175,0.123,0.262,0.369,0.262h3.497L143.455,79.9z"/>
	<path fill="#FFFFFF" d="M148.988,73.131l-2.081,6.769H145.3l2.08-6.769H148.988z"/>
	<path fill="#FFFFFF" d="M156.345,74.495l-1.66,5.405h-4.951c-0.27,0-0.473-0.102-0.604-0.306c-0.108-0.176-0.162-0.396-0.162-0.662
		c0-0.181,0.024-0.349,0.073-0.501l0.635-2.097c0.152-0.509,0.465-0.764,0.937-0.764h3.793l0.11-0.395
		c0.015-0.05,0.022-0.098,0.022-0.142c0-0.197-0.11-0.294-0.332-0.294h-4.051l0.487-1.593h4.988c0.521,0,0.781,0.299,0.781,0.898
		C156.411,74.205,156.39,74.353,156.345,74.495z M153.917,77.164h-2.537c-0.232,0-0.384,0.12-0.459,0.361l-0.095,0.292
		c-0.02,0.075-0.029,0.144-0.029,0.206c0,0.189,0.083,0.283,0.25,0.283h2.523L153.917,77.164z"/>
	<path fill="#FFFFFF" d="M158.389,79.891l-1.609,0.009l1.587-5.159h-2.42l0.501-1.609h6.367l-0.494,1.609h-2.346l-1.586,5.159
		V79.891z"/>
	<path fill="#FFFFFF" d="M166.289,73.131l-2.08,6.769h-1.608l2.081-6.769H166.289z"/>
	<path fill="#FFFFFF" d="M173.602,74.935l-1.335,4.338c-0.069,0.219-0.194,0.387-0.377,0.499c-0.142,0.085-0.297,0.128-0.464,0.128
		h-4.272c-0.591,0-0.886-0.291-0.886-0.873c0-0.26,0.057-0.562,0.171-0.906l0.124-0.355l1.211-3.982
		c0.063-0.221,0.188-0.386,0.369-0.5c0.147-0.09,0.305-0.135,0.472-0.135h4.272c0.585,0,0.878,0.291,0.878,0.872
		C173.765,74.263,173.71,74.568,173.602,74.935z M171.883,75.266c0.02-0.058,0.029-0.114,0.029-0.17
		c0-0.237-0.089-0.355-0.265-0.355h-2.141c-0.285,0-0.479,0.169-0.583,0.509l-0.768,2.531c-0.02,0.057-0.029,0.116-0.029,0.178
		c0,0.232,0.089,0.348,0.266,0.348h2.141c0.177,0,0.312-0.051,0.405-0.152c0.06-0.066,0.116-0.184,0.17-0.347L171.883,75.266z"/>
	<path fill="#FFFFFF" d="M181.37,74.935l-1.534,4.965h-1.594l1.409-4.634c0.015-0.058,0.022-0.114,0.022-0.17
		c0-0.237-0.086-0.355-0.258-0.355h-2.141c-0.29,0-0.484,0.169-0.583,0.509l-1.409,4.65h-1.607l2.058-6.752h4.922
		c0.585,0,0.878,0.291,0.878,0.872C181.533,74.263,181.479,74.568,181.37,74.935z"/>
</g>
</svg>
