<?xml version="1.0" encoding="utf-8"?>
<!-- Generator: Adobe Illustrator 19.1.0, SVG Export Plug-In . SVG Version: 6.00 Build 0)  -->
<svg version="1.1" id="Calque_1" xmlns="http://www.w3.org/2000/svg" xmlns:xlink="http://www.w3.org/1999/xlink" x="0px" y="0px"
	 viewBox="75 23 450 105" style="enable-background:new 75 23 450 105;" xml:space="preserve">
<style type="text/css">
	.st0{fill:#F39200;}
	.st1{fill:#FFFFFF;}
	.st2{fill:url(#SVGID_1_);}
	.st3{fill:url(#SVGID_2_);}
	.st4{fill:url(#SVGID_3_);}
	.st5{fill:url(#SVGID_4_);}
</style>
<g>
	<path class="st0" d="M393.7,34.3v8.3h9v1.2h-9v9.1h12.2v1.2h-13.5V33h13.5v1.3H393.7z"/>
	<path class="st0" d="M419.6,54.1H418L408.7,33h1.5l8.7,19.8l8.8-19.8h1.4L419.6,54.1z"/>
	<path class="st0" d="M434.5,34.3v8.3h9v1.2h-9v9.1h12.2v1.2h-13.5V33h13.5v1.3H434.5z"/>
	<path class="st0" d="M453.5,35.3v18.9h-1.3V33h1.3l14.2,18.9V33h1.3v21.1h-1.3L453.5,35.3z"/>
	<path class="st0" d="M482.3,34.3v19.9H481V34.3h-7.4V33h16.1v1.3H482.3z"/>
	<path class="st0" d="M392.4,63.2h7.3c6.1,0,10.2,4.4,10.2,10.5c0,6.4-4.1,10.7-10.2,10.7h-7.2L392.4,63.2L392.4,63.2z M393.7,64.5
		v18.7h5.8c5.4,0,8.9-3.7,8.9-9.4c0-5.4-3.5-9.2-8.9-9.2h-5.8V64.5z"/>
	<path class="st0" d="M428,78.9h-12.4l-2.4,5.5h-1.4l9.2-21.1h1.5l9.3,21.1h-1.4L428,78.9z M416.2,77.7h11.3l-5.7-13L416.2,77.7z"/>
	<path class="st0" d="M440.4,64.5v19.9h-1.3V64.5h-7.4v-1.3h16.1v1.3H440.4z"/>
	<path class="st0" d="M463.8,78.9h-12.4l-2.4,5.5h-1.4l9.2-21.1h1.5l9.3,21.1h-1.4L463.8,78.9z M451.9,77.7h11.3l-5.7-13L451.9,77.7
		z"/>
	<path class="st0" d="M393.7,94.7v8.3h9v1.2h-9v9.1h12.2v1.2h-13.5v-21h13.5v1.3h-12.2V94.7z"/>
	<path class="st0" d="M417.8,105.1l-7.5,9.5h-1.5l8.2-10.5l-8.3-10.7h1.6l7.7,9.8l7.7-9.8h1.5l-8.4,10.8l8.1,10.4h-1.6L417.8,105.1z
		"/>
	<path class="st0" d="M432.6,106.2v8.4h-1.3V93.5h7.7c4,0,7,2.6,7,6.3c0,3.8-2.9,6.5-7,6.5h-6.4V106.2z M432.6,94.7V105h6.3
		c3.3,0,5.5-2.1,5.5-5.2c0-3-2.2-5-5.5-5h-6.3V94.7z"/>
	<path class="st0" d="M452.7,94.7v8.3h9v1.2h-9v9.1h12.2v1.2h-13.5v-21h13.5v1.3h-12.2V94.7z"/>
	<path class="st0" d="M478,104.9h-6.3v9.7h-1.3V93.5h7.9c3.9,0,6.7,2.3,6.7,5.6c0,3-2.2,5.3-5.5,5.7l6.4,9.8h-1.7L478,104.9z
		 M471.6,94.7v9h6.5c3.2,0,5.3-1.9,5.3-4.6c0-2.6-2.1-4.4-5.3-4.4H471.6z"/>
	<path class="st0" d="M496.9,94.7v19.9h-1.3V94.7h-7.4v-1.3h16.1v1.3H496.9z"/>
	<path class="st0" d="M507.6,111.5c1.9,1.3,4.7,2.2,7.3,2.2c3.6,0,6.3-1.6,6.3-4.5c0-2.7-2.6-3.8-6.7-5.2c-4.2-1.4-6.7-2.7-6.7-5.7
		s3.1-5.1,7.4-5.1c2.3,0,4.3,0.5,6.1,1.5V96c-2-1.1-4.2-1.5-6.1-1.5c-3.2,0-5.9,1.3-5.9,3.9c0,2.4,2.5,3.4,6.4,4.7
		c4.9,1.6,7.1,3.2,7.1,6.3c0,3.6-3.4,5.7-7.7,5.7c-2.7,0-5.5-0.9-7.3-2v-1.6H507.6z"/>
</g>
<path class="st1" d="M273.3,33.4v26.4c0,2.5-0.5,4.9-1.5,7.2s-2.3,4.2-4,5.9c-1.7,1.7-3.7,3-5.9,4c-2.3,1-4.7,1.5-7.3,1.5h-13
	c-2.6,0-5-0.5-7.2-1.5s-4.2-2.3-5.9-4c-0.3-0.4-0.7-0.7-1-1.1c-0.3-0.3-0.6-0.7-1-1.1c-0.3,0.4-0.6,0.7-0.9,1.1
	c-0.3,0.4-0.7,0.8-1,1.1c-1.7,1.7-3.6,3-5.9,4c-2.2,1-4.7,1.5-7.2,1.5h-13.1c-2.6,0-5-0.5-7.3-1.5c-2.3-1-4.2-2.3-5.9-4
	s-3-3.6-4-5.9s-1.5-4.7-1.5-7.2V33.4h7.1v26.5c0,1.6,0.3,3,0.9,4.4s1.5,2.6,2.5,3.6s2.3,1.9,3.7,2.5s2.9,0.9,4.4,0.9h13.1
	c1.6,0,3.1-0.3,4.5-0.9s2.6-1.4,3.6-2.5c1-1,1.9-2.3,2.5-3.6c0.6-1.4,0.9-2.9,0.9-4.5V33.4h7.1v26.4c0,1.6,0.3,3.1,0.9,4.5
	c0.6,1.4,1.4,2.6,2.5,3.6c1,1,2.3,1.9,3.7,2.5c1.4,0.6,2.9,0.9,4.5,0.9h13.1c1.6,0,3.1-0.3,4.5-0.9c1.4-0.6,2.6-1.4,3.6-2.5
	c1-1,1.9-2.3,2.5-3.6c0.6-1.4,0.9-2.9,0.9-4.5V33.4H273.3z"/>
<path class="st1" d="M283.2,78.5V33.4h7.2v45.1H283.2z"/>
<path class="st1" d="M299.9,78.5V72l46.7-31.6H300v-7h60.7v6.2l-47.3,32h46.5v7L299.9,78.5L299.9,78.5z"/>
<path class="st1" d="M216,89.8h-15.8v24.6h-4.6V89.8h-15.8v-4.6H216V89.8z"/>
<path class="st1" d="M222,94c0-1.2,0.3-2.4,0.8-3.4c0.5-1.1,1.2-2,2.1-2.8c0.9-0.8,1.9-1.4,3-1.9c1.2-0.5,2.4-0.7,3.6-0.7h18.3
	c1.2,0,2.4,0.2,3.6,0.7c1.1,0.5,2.1,1.1,3,2c0.9,0.8,1.5,1.8,2,2.9s0.8,2.3,0.8,3.5c0,1.3-0.3,2.5-0.8,3.5c-0.5,1.1-1.2,2.1-2.1,2.9
	s-1.9,1.5-3,1.9c-1.2,0.5-2.4,0.7-3.6,0.7h-23.1v3.4c0.3,1,0.9,1.7,1.8,2.3c1,0.6,2,0.8,3.1,0.8h26.8v4.5h-27.1
	c-1.1,0-2.2-0.2-3.3-0.5s-2.1-0.8-3-1.5c-0.9-0.6-1.6-1.4-2.2-2.4c-0.6-0.9-0.9-2-0.9-3.2V94H222z M231.5,89.7
	c-0.5,0-1.1,0.1-1.6,0.3c-0.6,0.2-1.1,0.5-1.6,0.9s-0.9,0.9-1.3,1.4c-0.3,0.6-0.5,1.1-0.5,1.8v4.6h23.3c0.6,0,1.2-0.1,1.8-0.4
	c0.6-0.2,1.1-0.6,1.5-0.9c0.4-0.4,0.8-0.9,1.1-1.4c0.3-0.6,0.4-1.1,0.4-1.8c0-0.6-0.1-1.2-0.4-1.8c-0.3-0.6-0.6-1-1.1-1.4
	s-1-0.7-1.6-0.9c-0.6-0.2-1.2-0.3-1.9-0.3L231.5,89.7L231.5,89.7z"/>
<path class="st1" d="M273.2,114.4c-0.9,0-1.9-0.1-2.8-0.4s-1.7-0.7-2.5-1.2s-1.5-1.1-2.1-1.8c-0.6-0.7-1.1-1.4-1.5-2.2
	c-0.3-0.6-0.5-1.2-0.6-1.8c-0.2-0.6-0.2-1.2-0.2-1.9c0-1.3,0.3-2.5,0.8-3.6s1.2-2.1,2.1-2.9s1.9-1.5,3-2s2.4-0.7,3.6-0.7h22.9v-1.1
	c0-0.7-0.1-1.3-0.4-2c-0.3-0.6-0.7-1.2-1.1-1.6c-0.5-0.5-1-0.8-1.6-1.1c-0.6-0.3-1.3-0.4-2-0.4H270v-4.6h20.8c1.3,0,2.6,0.3,3.8,0.8
	s2.2,1.2,3.1,2.1c0.9,0.9,1.6,1.9,2.1,3.1s0.8,2.4,0.8,3.8v19.6L273.2,114.4z M270.4,101.4c-0.7,0.4-1.2,1-1.6,1.6
	c-0.4,0.6-0.6,1.4-0.6,2.2c0,0.7,0.1,1.3,0.4,1.8c0.3,0.6,0.6,1,1.1,1.4c0.4,0.4,0.9,0.7,1.5,1c0.6,0.2,1.2,0.4,1.9,0.4H296v-9.2
	h-22.8C272.1,100.6,271.2,100.8,270.4,101.4z"/>
<path class="st1" d="M353.6,86.1c1.4,0.6,2.7,1.5,3.8,2.6c1.1,1.1,1.9,2.3,2.6,3.8c0.6,1.5,1,3,1,4.7v17.3h-4.5V97.1
	c0-1-0.2-2-0.6-2.8c-0.4-0.9-0.9-1.7-1.6-2.3c-0.7-0.7-1.4-1.2-2.3-1.6s-1.8-0.6-2.8-0.6h-14.3v24.7h-4.6V89.7h-19v24.7h-4.5V85.2
	H349C350.6,85.2,352.2,85.5,353.6,86.1z"/>
<rect x="376.1" y="33.4" class="st0" width="1.2" height="81"/>
<linearGradient id="SVGID_1_" gradientUnits="userSpaceOnUse" x1="81.0726" y1="95.9389" x2="105.4686" y2="64.7838" gradientTransform="matrix(1 0 0 -1 0 152)">
	<stop  offset="0" style="stop-color:#F39200"/>
	<stop  offset="0.1633" style="stop-color:#F28C00"/>
	<stop  offset="0.4062" style="stop-color:#EF7B00"/>
	<stop  offset="0.6986" style="stop-color:#EB5E0B"/>
	<stop  offset="1" style="stop-color:#E63312"/>
</linearGradient>
<path class="st2" d="M103.6,65.8c-6-5.7-13.3-9.4-23.3-12c9.8,6.7,12.8,20.1,13.7,37.8C95.6,83,98.8,74.2,103.6,65.8z"/>
<path class="st1" d="M145.9,108.9l-1.2-1.5c10.4-7.7,16.4-19.5,16.4-32.4c0-11.9-5.2-23.1-14.2-30.7l1.2-1.5
	c9.4,8,14.9,19.8,14.9,32.2C163,88.3,156.6,101,145.9,108.9z"/>
<path class="st1" d="M87.5,52.3l-1.6-1.1c7.9-11.5,20.9-18.4,34.9-18.4c2.5,0,5,0.2,7.4,0.6l-0.3,1.9c-2.3-0.4-4.7-0.6-7-0.6
	C107.4,34.7,95,41.3,87.5,52.3z"/>
<path class="st1" d="M90.8,101.9c-6.6-7.3-10.3-16.7-10.3-26.6c0-5.1,0.9-10.2,2.7-14.9l-1.8-0.7c-1.9,5-2.9,10.2-2.9,15.6
	c0.1,10.4,3.9,20.2,10.9,27.9L90.8,101.9z"/>
<linearGradient id="SVGID_2_" gradientUnits="userSpaceOnUse" x1="105.5179" y1="88.2027" x2="124.4102" y2="80.2607" gradientTransform="matrix(1 0 0 -1 0 152)">
	<stop  offset="0" style="stop-color:#F39200"/>
	<stop  offset="0.1723" style="stop-color:#F28E00"/>
	<stop  offset="0.3853" style="stop-color:#F08100"/>
	<stop  offset="0.6198" style="stop-color:#ED6B06"/>
	<stop  offset="0.868" style="stop-color:#E84A0F"/>
	<stop  offset="1" style="stop-color:#E63312"/>
</linearGradient>
<path class="st3" d="M116.4,70.9c5.4-16,17.2-31.6,31.9-43.4C118,42,89.5,76.4,95.1,113.7l17.8-7.9C111.5,94,112.6,82.2,116.4,70.9z
	"/>
<g>
	
		<linearGradient id="SVGID_3_" gradientUnits="userSpaceOnUse" x1="116.3452" y1="85.1749" x2="137.1706" y2="77.1652" gradientTransform="matrix(1 0 0 -1 0 152)">
		<stop  offset="0" style="stop-color:#F39200"/>
		<stop  offset="0.1653" style="stop-color:#F28B00"/>
		<stop  offset="0.4298" style="stop-color:#EF7800"/>
		<stop  offset="0.7585" style="stop-color:#E9550D"/>
		<stop  offset="1" style="stop-color:#E63312"/>
	</linearGradient>
	<path class="st4" d="M134.4,78.3c0.4-14.5,5.7-31.3,15.6-50.4c-14.8,11.7-26.6,27.7-32,43.6c-5.1,15.2-5.3,31.6-0.6,47.6
		C117.3,104.5,122.5,89.2,134.4,78.3z"/>
</g>
<linearGradient id="SVGID_4_" gradientUnits="userSpaceOnUse" x1="119.2413" y1="55.65" x2="156.1708" y2="55.65" gradientTransform="matrix(1 0 0 -1 0 152)">
	<stop  offset="0" style="stop-color:#F39200"/>
	<stop  offset="0.1793" style="stop-color:#F18800"/>
	<stop  offset="0.5" style="stop-color:#ED6E04"/>
	<stop  offset="0.9223" style="stop-color:#E73D11"/>
	<stop  offset="1" style="stop-color:#E63312"/>
</linearGradient>
<path class="st5" d="M119.6,124.7l21.2-10.1c-1.8-17,0.2-28.8,15.3-46.6C127.5,77,117.1,102.5,119.6,124.7z"/>
</svg>
